<svg width="384" height="384" xmlns="http://www.w3.org/2000/svg" xmlns:xlink="http://www.w3.org/1999/xlink" xml:space="preserve" overflow="hidden"><g transform="translate(-448 -168)"><path d="M576 290.868 576 269.236C563.117 252.669 566.103 228.795 582.67 215.912 599.237 203.028 623.111 206.014 635.995 222.582 646.591 236.208 646.672 255.264 636.192 268.98L636.192 290.748C660.921 274.077 667.453 240.516 650.782 215.787 634.111 191.058 600.55 184.526 575.821 201.197 551.092 217.868 544.56 251.429 561.231 276.158 565.152 281.974 570.168 286.97 576 290.868Z" fill="#000000"/><path d="M588 246.096 588 416.86 587.956 416.86 573.092 350C570.804 340.271 561.062 334.24 551.333 336.528 541.775 338.776 535.754 348.237 537.764 357.848L559.48 455.544C560.404 459.681 562.751 463.362 566.112 465.944L606.112 496.704 606.112 524 711.048 524 711.048 505.904C711.048 480.268 740 478.304 740 429.904L740 364.76C740.012 352.782 730.312 343.062 718.334 343.05 712.924 343.045 707.708 345.061 703.708 348.704 703.768 348.032 703.808 347.356 703.808 346.668 703.816 334.684 694.106 324.962 682.122 324.954 676.509 324.951 671.114 327.122 667.068 331.012 664.43 319.319 652.813 311.978 641.12 314.616 631.213 316.851 624.181 325.656 624.192 335.812L624.192 246.096C624.192 236.102 616.09 228 606.096 228 596.102 228 588 236.102 588 246.096Z" fill="#000000"/></g></svg>